<svg width="128" height="128" viewBox="0 0 128 128" fill="none" xmlns="http://www.w3.org/2000/svg">
<g clip-path="url(#clip0_1_26)">
<rect width="128" height="128" rx="8" fill="#CECBCB"/>
<mask id="path-2-outside-1_1_26" maskUnits="userSpaceOnUse" x="-2" y="24" width="131" height="73" fill="black">
<rect fill="white" x="-2" y="24" width="131" height="73"/>
<path d="M0.976562 93.0547C0.690104 92.1953 0.747396 91.4505 1.14844 90.8203C1.54948 90.1328 2.15104 89.5599 2.95312 89.1016C6.50521 87.3255 9.97135 85.8359 13.3516 84.6328C16.7318 83.3724 20.0547 82.1406 23.3203 80.9375C26.6432 79.6771 29.9375 78.3021 33.2031 76.8125C36.4688 75.2656 39.7917 73.2891 43.1719 70.8828C50.6771 66.5286 56.4349 62.4609 60.4453 58.6797C64.4557 54.8984 67.1198 51.4896 68.4375 48.4531C69.7552 45.3594 69.9271 42.6667 68.9531 40.375C67.9792 38.026 66.2891 36.1354 63.8828 34.7031C61.4766 33.2708 58.526 32.3255 55.0312 31.8672C51.5938 31.3516 48.013 31.3802 44.2891 31.9531C40.5651 32.526 36.9271 33.6719 33.375 35.3906C29.8229 37.0521 26.7578 39.3724 24.1797 42.3516C24.1224 42.4661 24.0365 42.6667 23.9219 42.9531C23.8073 43.2396 23.6927 43.5547 23.5781 43.8984C23.5208 44.1849 23.4349 44.5 23.3203 44.8438C23.263 45.1302 23.2344 45.3021 23.2344 45.3594C21.5156 49.4844 19.8828 53.0365 18.3359 56.0156C16.8464 58.9375 15.4141 61.7734 14.0391 64.5234C12.7214 67.2161 11.4609 70.1094 10.2578 73.2031C9.05469 76.2396 7.90885 79.9349 6.82031 84.2891C5.78906 84.6328 5.04427 84.6042 4.58594 84.2031C4.1849 83.8021 3.95573 83.2005 3.89844 82.3984C3.84115 81.5391 3.92708 80.5651 4.15625 79.4766C4.44271 78.388 4.75781 77.3281 5.10156 76.2969C5.44531 75.2656 5.78906 74.3203 6.13281 73.4609C6.47656 72.6016 6.70573 72 6.82031 71.6562C7.27865 70.3385 7.99479 68.6484 8.96875 66.5859C9.94271 64.4661 10.974 62.2604 12.0625 59.9688C13.151 57.6771 14.1823 55.4714 15.1562 53.3516C16.1302 51.2318 16.875 49.513 17.3906 48.1953C16.875 46.5339 16.7604 45.0729 17.0469 43.8125C17.3906 42.4948 17.9635 41.3203 18.7656 40.2891C19.5677 39.2005 20.5417 38.2266 21.6875 37.3672C22.8333 36.4505 23.9792 35.5625 25.125 34.7031C28.3906 32.2969 31.9141 30.4349 35.6953 29.1172C39.4766 27.7995 43.3151 27.0833 47.2109 26.9688C51.1641 26.7969 55.0885 27.2839 58.9844 28.4297C62.8802 29.5755 66.5469 31.4375 69.9844 34.0156C72.7344 36.3073 74.3385 38.7995 74.7969 41.4922C75.3125 44.1849 74.9401 46.9635 73.6797 49.8281C72.4193 52.6354 70.4427 55.5 67.75 58.4219C65.1146 61.3438 62.0208 64.2083 58.4688 67.0156C54.9167 69.8229 51.0495 72.5443 46.8672 75.1797C42.7422 77.7578 38.5885 80.1641 34.4062 82.3984C30.2812 84.5755 26.2422 86.5234 22.2891 88.2422C18.3932 89.9036 14.8984 91.2214 11.8047 92.1953C8.76823 93.1693 6.27604 93.7708 4.32812 94C2.38021 94.1719 1.26302 93.8568 0.976562 93.0547ZM77.5469 93.0547C77.2604 92.9401 76.5729 92.625 75.4844 92.1094C74.4531 91.5938 73.4792 90.9922 72.5625 90.3047C71.6458 89.6172 70.987 88.901 70.5859 88.1562C70.2422 87.4115 70.6146 86.7812 71.7031 86.2656C72.3333 86.8385 73.1927 87.526 74.2812 88.3281C75.4271 89.1302 76.5156 89.7318 77.5469 90.1328C80.6979 90.3047 83.763 90.3333 86.7422 90.2188C89.7214 90.0469 92.6146 89.6745 95.4219 89.1016C98.2865 88.4714 101.036 87.5547 103.672 86.3516C106.365 85.0911 108.971 83.4583 111.492 81.4531C114.299 79.1042 116.133 76.9557 116.992 75.0078C117.909 73.0026 118.081 71.1693 117.508 69.5078C116.992 67.7891 115.875 66.2135 114.156 64.7812C112.495 63.2917 110.49 61.9167 108.141 60.6562C105.849 59.3385 103.385 58.1354 100.75 57.0469C98.1146 55.901 95.5938 54.8125 93.1875 53.7812C90.7812 52.6927 88.6042 51.6328 86.6562 50.6016C84.7083 49.5703 83.276 48.5104 82.3594 47.4219C82.1302 46.4479 82.6172 45.3021 83.8203 43.9844C85.0234 42.6667 86.6849 41.3203 88.8047 39.9453C90.9245 38.513 93.3594 37.1094 96.1094 35.7344C98.8594 34.3021 101.667 33.013 104.531 31.8672C107.453 30.7214 110.26 29.7474 112.953 28.9453C115.703 28.1432 118.109 27.6562 120.172 27.4844C122.234 27.2552 123.81 27.3984 124.898 27.9141C125.987 28.4297 126.359 29.4036 126.016 30.8359C125.615 30.8932 124.583 31.151 122.922 31.6094C121.26 32.0677 119.227 32.6406 116.82 33.3281C114.471 34.0156 111.893 34.8177 109.086 35.7344C106.336 36.651 103.615 37.625 100.922 38.6562C98.2292 39.6302 95.737 40.6328 93.4453 41.6641C91.1536 42.6953 89.349 43.6979 88.0312 44.6719C86.7135 45.6458 85.9688 46.5339 85.7969 47.3359C85.6823 48.138 86.4557 48.8255 88.1172 49.3984C96.4818 51.9193 103.042 54.612 107.797 57.4766C112.609 60.2839 115.99 63.1484 117.938 66.0703C119.885 68.9349 120.63 71.7708 120.172 74.5781C119.714 77.3854 118.453 79.9922 116.391 82.3984C114.385 84.8047 111.75 86.9531 108.484 88.8438C105.219 90.6771 101.753 92.1094 98.0859 93.1406C94.4766 94.1719 90.8385 94.7161 87.1719 94.7734C83.5625 94.8307 80.3542 94.2578 77.5469 93.0547Z"/>
</mask>
<path d="M0.976562 93.0547C0.690104 92.1953 0.747396 91.4505 1.14844 90.8203C1.54948 90.1328 2.15104 89.5599 2.95312 89.1016C6.50521 87.3255 9.97135 85.8359 13.3516 84.6328C16.7318 83.3724 20.0547 82.1406 23.3203 80.9375C26.6432 79.6771 29.9375 78.3021 33.2031 76.8125C36.4688 75.2656 39.7917 73.2891 43.1719 70.8828C50.6771 66.5286 56.4349 62.4609 60.4453 58.6797C64.4557 54.8984 67.1198 51.4896 68.4375 48.4531C69.7552 45.3594 69.9271 42.6667 68.9531 40.375C67.9792 38.026 66.2891 36.1354 63.8828 34.7031C61.4766 33.2708 58.526 32.3255 55.0312 31.8672C51.5938 31.3516 48.013 31.3802 44.2891 31.9531C40.5651 32.526 36.9271 33.6719 33.375 35.3906C29.8229 37.0521 26.7578 39.3724 24.1797 42.3516C24.1224 42.4661 24.0365 42.6667 23.9219 42.9531C23.8073 43.2396 23.6927 43.5547 23.5781 43.8984C23.5208 44.1849 23.4349 44.5 23.3203 44.8438C23.263 45.1302 23.2344 45.3021 23.2344 45.3594C21.5156 49.4844 19.8828 53.0365 18.3359 56.0156C16.8464 58.9375 15.4141 61.7734 14.0391 64.5234C12.7214 67.2161 11.4609 70.1094 10.2578 73.2031C9.05469 76.2396 7.90885 79.9349 6.82031 84.2891C5.78906 84.6328 5.04427 84.6042 4.58594 84.2031C4.1849 83.8021 3.95573 83.2005 3.89844 82.3984C3.84115 81.5391 3.92708 80.5651 4.15625 79.4766C4.44271 78.388 4.75781 77.3281 5.10156 76.2969C5.44531 75.2656 5.78906 74.3203 6.13281 73.4609C6.47656 72.6016 6.70573 72 6.82031 71.6562C7.27865 70.3385 7.99479 68.6484 8.96875 66.5859C9.94271 64.4661 10.974 62.2604 12.0625 59.9688C13.151 57.6771 14.1823 55.4714 15.1562 53.3516C16.1302 51.2318 16.875 49.513 17.3906 48.1953C16.875 46.5339 16.7604 45.0729 17.0469 43.8125C17.3906 42.4948 17.9635 41.3203 18.7656 40.2891C19.5677 39.2005 20.5417 38.2266 21.6875 37.3672C22.8333 36.4505 23.9792 35.5625 25.125 34.7031C28.3906 32.2969 31.9141 30.4349 35.6953 29.1172C39.4766 27.7995 43.3151 27.0833 47.2109 26.9688C51.1641 26.7969 55.0885 27.2839 58.9844 28.4297C62.8802 29.5755 66.5469 31.4375 69.9844 34.0156C72.7344 36.3073 74.3385 38.7995 74.7969 41.4922C75.3125 44.1849 74.9401 46.9635 73.6797 49.8281C72.4193 52.6354 70.4427 55.5 67.75 58.4219C65.1146 61.3438 62.0208 64.2083 58.4688 67.0156C54.9167 69.8229 51.0495 72.5443 46.8672 75.1797C42.7422 77.7578 38.5885 80.1641 34.4062 82.3984C30.2812 84.5755 26.2422 86.5234 22.2891 88.2422C18.3932 89.9036 14.8984 91.2214 11.8047 92.1953C8.76823 93.1693 6.27604 93.7708 4.32812 94C2.38021 94.1719 1.26302 93.8568 0.976562 93.0547ZM77.5469 93.0547C77.2604 92.9401 76.5729 92.625 75.4844 92.1094C74.4531 91.5938 73.4792 90.9922 72.5625 90.3047C71.6458 89.6172 70.987 88.901 70.5859 88.1562C70.2422 87.4115 70.6146 86.7812 71.7031 86.2656C72.3333 86.8385 73.1927 87.526 74.2812 88.3281C75.4271 89.1302 76.5156 89.7318 77.5469 90.1328C80.6979 90.3047 83.763 90.3333 86.7422 90.2188C89.7214 90.0469 92.6146 89.6745 95.4219 89.1016C98.2865 88.4714 101.036 87.5547 103.672 86.3516C106.365 85.0911 108.971 83.4583 111.492 81.4531C114.299 79.1042 116.133 76.9557 116.992 75.0078C117.909 73.0026 118.081 71.1693 117.508 69.5078C116.992 67.7891 115.875 66.2135 114.156 64.7812C112.495 63.2917 110.49 61.9167 108.141 60.6562C105.849 59.3385 103.385 58.1354 100.75 57.0469C98.1146 55.901 95.5938 54.8125 93.1875 53.7812C90.7812 52.6927 88.6042 51.6328 86.6562 50.6016C84.7083 49.5703 83.276 48.5104 82.3594 47.4219C82.1302 46.4479 82.6172 45.3021 83.8203 43.9844C85.0234 42.6667 86.6849 41.3203 88.8047 39.9453C90.9245 38.513 93.3594 37.1094 96.1094 35.7344C98.8594 34.3021 101.667 33.013 104.531 31.8672C107.453 30.7214 110.26 29.7474 112.953 28.9453C115.703 28.1432 118.109 27.6562 120.172 27.4844C122.234 27.2552 123.81 27.3984 124.898 27.9141C125.987 28.4297 126.359 29.4036 126.016 30.8359C125.615 30.8932 124.583 31.151 122.922 31.6094C121.26 32.0677 119.227 32.6406 116.82 33.3281C114.471 34.0156 111.893 34.8177 109.086 35.7344C106.336 36.651 103.615 37.625 100.922 38.6562C98.2292 39.6302 95.737 40.6328 93.4453 41.6641C91.1536 42.6953 89.349 43.6979 88.0312 44.6719C86.7135 45.6458 85.9688 46.5339 85.7969 47.3359C85.6823 48.138 86.4557 48.8255 88.1172 49.3984C96.4818 51.9193 103.042 54.612 107.797 57.4766C112.609 60.2839 115.99 63.1484 117.938 66.0703C119.885 68.9349 120.63 71.7708 120.172 74.5781C119.714 77.3854 118.453 79.9922 116.391 82.3984C114.385 84.8047 111.75 86.9531 108.484 88.8438C105.219 90.6771 101.753 92.1094 98.0859 93.1406C94.4766 94.1719 90.8385 94.7161 87.1719 94.7734C83.5625 94.8307 80.3542 94.2578 77.5469 93.0547Z" fill="#1525B3"/>
<path d="M0.976562 93.0547L-0.920804 93.6871L-0.914077 93.7073L-0.906921 93.7274L0.976562 93.0547ZM1.14844 90.8203L2.83576 91.8941L2.85652 91.8615L2.876 91.8281L1.14844 90.8203ZM2.95312 89.1016L2.0587 87.3127L2.00905 87.3375L1.96085 87.3651L2.95312 89.1016ZM13.3516 84.6328L14.0222 86.517L14.0363 86.512L14.0503 86.5068L13.3516 84.6328ZM23.3203 80.9375L24.0117 82.8142L24.0207 82.8109L24.0296 82.8075L23.3203 80.9375ZM33.2031 76.8125L34.0331 78.6321L34.0463 78.6262L34.0593 78.62L33.2031 76.8125ZM43.1719 70.8828L42.1682 69.1529L42.0878 69.1995L42.012 69.2535L43.1719 70.8828ZM60.4453 58.6797L61.8173 60.1349L60.4453 58.6797ZM68.4375 48.4531L70.2722 49.2493L70.2775 49.2369L68.4375 48.4531ZM68.9531 40.375L67.1056 41.141L67.109 41.1492L67.1125 41.1573L68.9531 40.375ZM55.0312 31.8672L54.7346 33.8451L54.7529 33.8478L54.7712 33.8502L55.0312 31.8672ZM44.2891 31.9531L43.9849 29.9764L44.2891 31.9531ZM33.375 35.3906L34.2224 37.2022L34.2343 37.1967L34.2461 37.1909L33.375 35.3906ZM24.1797 42.3516L22.6674 41.0428L22.5031 41.2326L22.3908 41.4571L24.1797 42.3516ZM23.5781 43.8984L21.6808 43.266L21.6414 43.3841L21.617 43.5062L23.5781 43.8984ZM23.3203 44.8438L21.4229 44.2113L21.3836 44.3294L21.3592 44.4515L23.3203 44.8438ZM23.2344 45.3594L25.0805 46.1286L25.2344 45.7594V45.3594H23.2344ZM18.3359 56.0156L16.5609 55.094L16.5575 55.1006L16.5541 55.1073L18.3359 56.0156ZM14.0391 64.5234L12.2502 63.629L12.2464 63.6367L12.2426 63.6443L14.0391 64.5234ZM10.2578 73.2031L12.1172 73.9399L12.1218 73.928L10.2578 73.2031ZM6.82031 84.2891L7.45277 86.1864L8.49432 85.8392L8.7606 84.7741L6.82031 84.2891ZM4.58594 84.2031L3.17172 85.6173L3.21881 85.6644L3.26893 85.7083L4.58594 84.2031ZM3.89844 82.3984L1.90284 82.5315L1.90352 82.5409L3.89844 82.3984ZM4.15625 79.4766L2.2221 78.9676L2.20942 79.0158L2.19915 79.0645L4.15625 79.4766ZM6.82031 71.6562L4.93132 70.9992L4.92705 71.0115L4.92295 71.0238L6.82031 71.6562ZM8.96875 66.5859L10.7772 67.4399L10.7817 67.4305L10.7861 67.4209L8.96875 66.5859ZM15.1562 53.3516L13.3389 52.5166L15.1562 53.3516ZM17.3906 48.1953L19.2531 48.9241L19.5084 48.2717L19.3008 47.6025L17.3906 48.1953ZM17.0469 43.8125L15.1116 43.3077L15.1036 43.3383L15.0966 43.3693L17.0469 43.8125ZM18.7656 40.2891L20.3443 41.5169L20.3603 41.4964L20.3757 41.4755L18.7656 40.2891ZM21.6875 37.3672L22.8875 38.9672L22.9125 38.9484L22.9369 38.9289L21.6875 37.3672ZM25.125 34.7031L23.9386 33.093L23.9318 33.098L23.925 33.1031L25.125 34.7031ZM35.6953 29.1172L36.3535 31.0058L35.6953 29.1172ZM47.2109 26.9688L47.2697 28.9679L47.2838 28.9675L47.2978 28.9669L47.2109 26.9688ZM69.9844 34.0156L71.2647 32.4792L71.2254 32.4464L71.1844 32.4156L69.9844 34.0156ZM74.7969 41.4922L72.8252 41.8278L72.8287 41.8481L72.8326 41.8683L74.7969 41.4922ZM73.6797 49.8281L75.5042 50.6473L75.5073 50.6405L75.5103 50.6336L73.6797 49.8281ZM67.75 58.4219L66.2793 57.0665L66.272 57.0744L66.2649 57.0823L67.75 58.4219ZM46.8672 75.1797L47.9272 76.8757L47.9334 76.8718L46.8672 75.1797ZM34.4062 82.3984L35.3398 84.1672L35.3487 84.1625L34.4062 82.3984ZM22.2891 88.2422L23.0737 90.0819L23.0865 90.0763L22.2891 88.2422ZM11.8047 92.1953L11.2041 90.2876L11.1938 90.2909L11.8047 92.1953ZM4.32812 94L4.50391 95.9923L4.5329 95.9897L4.56181 95.9863L4.32812 94ZM0.976562 93.0547L2.87393 92.4222C2.7975 92.1929 2.79445 92.0615 2.7988 92.005C2.80226 91.9599 2.81149 91.9322 2.83576 91.8941L1.14844 90.8203L-0.538885 89.7466C-1.33225 90.9933 -1.35298 92.3906 -0.920804 93.6871L0.976562 93.0547ZM1.14844 90.8203L2.876 91.8281C3.07347 91.4895 3.3986 91.1505 3.9454 90.8381L2.95312 89.1016L1.96085 87.3651C0.903483 87.9693 0.0254886 88.7761 -0.57912 89.8126L1.14844 90.8203ZM2.95312 89.1016L3.84755 90.8904C7.33462 89.1469 10.726 87.6902 14.0222 86.517L13.3516 84.6328L12.6809 82.7486C9.21667 83.9816 5.6758 85.5042 2.0587 87.3127L2.95312 89.1016ZM13.3516 84.6328L14.0503 86.5068C17.4282 85.2472 20.7486 84.0164 24.0117 82.8142L23.3203 80.9375L22.6289 79.0608C19.3607 80.2649 16.0354 81.4976 12.6528 82.7589L13.3516 84.6328ZM23.3203 80.9375L24.0296 82.8075C27.3937 81.5315 30.7282 80.1396 34.0331 78.6321L33.2031 76.8125L32.3731 74.9929C29.1468 76.4645 25.8927 77.8227 22.611 79.0675L23.3203 80.9375ZM33.2031 76.8125L34.0593 78.62C37.4454 77.016 40.8695 74.9768 44.3317 72.5121L43.1719 70.8828L42.012 69.2535C38.7138 71.6013 35.4921 73.5152 32.347 75.005L33.2031 76.8125ZM43.1719 70.8828L44.1755 72.6128C51.7471 68.2201 57.6503 64.0638 61.8173 60.1349L60.4453 58.6797L59.0733 57.2245C55.2195 60.8581 49.6071 64.8372 42.1682 69.1529L43.1719 70.8828ZM60.4453 58.6797L61.8173 60.1349C65.9109 56.2752 68.7979 52.6465 70.2722 49.2493L68.4375 48.4531L66.6028 47.6569C65.4416 50.3327 63.0005 53.5217 59.0733 57.2245L60.4453 58.6797ZM68.4375 48.4531L70.2775 49.2369C71.7311 45.8242 72.0468 42.541 70.7938 39.5927L68.9531 40.375L67.1125 41.1573C67.8073 42.7923 67.7794 44.8945 66.5975 47.6694L68.4375 48.4531ZM68.9531 40.375L70.8006 39.609C69.6448 36.8215 67.6428 34.6137 64.9058 32.9845L63.8828 34.7031L62.8598 36.4217C64.9353 37.6571 66.3135 39.2306 67.1056 41.141L68.9531 40.375ZM63.8828 34.7031L64.9058 32.9845C62.2138 31.3822 58.9884 30.369 55.2913 29.8842L55.0312 31.8672L54.7712 33.8502C58.0637 34.282 60.7393 35.1595 62.8598 36.4217L63.8828 34.7031ZM55.0312 31.8672L55.3279 29.8893C51.6753 29.3414 47.8913 29.3754 43.9849 29.9764L44.2891 31.9531L44.5932 33.9299C48.1347 33.385 51.5122 33.3617 54.7346 33.8451L55.0312 31.8672ZM44.2891 31.9531L43.9849 29.9764C40.0551 30.581 36.2266 31.789 32.5039 33.5903L33.375 35.3906L34.2461 37.1909C37.6276 35.5548 41.0751 34.4711 44.5932 33.9299L44.2891 31.9531ZM33.375 35.3906L32.5276 33.579C28.7198 35.3601 25.4285 37.8522 22.6674 41.0428L24.1797 42.3516L25.692 43.6603C28.0872 40.8926 30.926 38.7441 34.2224 37.2022L33.375 35.3906ZM24.1797 42.3516L22.3908 41.4571C22.2925 41.6539 22.1795 41.9238 22.0649 42.2103L23.9219 42.9531L25.7788 43.6959C25.8323 43.5621 25.876 43.4564 25.9106 43.3757C25.9277 43.3357 25.9415 43.3046 25.9521 43.2812C25.9573 43.2697 25.9614 43.261 25.9643 43.2547C25.9673 43.2484 25.9687 43.2457 25.9685 43.246L24.1797 42.3516ZM23.9219 42.9531L22.0649 42.2103C21.9335 42.5388 21.8057 42.8913 21.6808 43.266L23.5781 43.8984L25.4755 44.5309C25.5798 44.2181 25.681 43.9404 25.7788 43.6959L23.9219 42.9531ZM23.5781 43.8984L21.617 43.5062C21.5792 43.6948 21.5173 43.9284 21.4229 44.2113L23.3203 44.8438L25.2177 45.4762C25.3525 45.0716 25.4624 44.675 25.5393 44.2907L23.5781 43.8984ZM23.3203 44.8438L21.3592 44.4515C21.3287 44.6038 21.3025 44.7422 21.2831 44.8587C21.2737 44.9152 21.2344 45.137 21.2344 45.3594H23.2344H25.2344C25.2344 45.3961 25.2333 45.4262 25.2322 45.4472C25.2311 45.4687 25.2298 45.4862 25.2288 45.4986C25.2268 45.5226 25.2249 45.5385 25.2243 45.543C25.2233 45.5512 25.224 45.5444 25.2286 45.5163C25.2379 45.4609 25.2546 45.3701 25.2815 45.236L23.3203 44.8438ZM23.2344 45.3594L21.3882 44.5901C19.6845 48.6791 18.0751 52.1778 16.5609 55.094L18.3359 56.0156L20.1109 56.9373C21.6905 53.8951 23.3468 50.2896 25.0805 46.1286L23.2344 45.3594ZM18.3359 56.0156L16.5541 55.1073C15.0623 58.0335 13.6277 60.8741 12.2502 63.629L14.0391 64.5234L15.8279 65.4179C17.2004 62.6728 18.6304 59.8415 20.1178 56.924L18.3359 56.0156ZM14.0391 64.5234L12.2426 63.6443C10.8978 66.3925 9.61515 69.3376 8.3938 72.4782L10.2578 73.2031L12.1218 73.928C13.3067 70.8811 14.5449 68.0398 15.8355 65.4025L14.0391 64.5234ZM10.2578 73.2031L8.39845 72.4664C7.15337 75.6088 5.98267 79.3934 4.88003 83.804L6.82031 84.2891L8.7606 84.7741C9.83504 80.4763 10.956 76.8704 12.1172 73.9399L10.2578 73.2031ZM6.82031 84.2891L6.18786 82.3917C6.00443 82.4528 5.86012 82.4885 5.7512 82.5078C5.64159 82.5273 5.58256 82.5275 5.56515 82.5269C5.54917 82.5263 5.586 82.5256 5.65607 82.5506C5.73059 82.5772 5.81927 82.6248 5.90295 82.698L4.58594 84.2031L3.26893 85.7083C4.57853 86.8542 6.27801 86.578 7.45277 86.1864L6.82031 84.2891ZM4.58594 84.2031L6.00015 82.7889C6.05765 82.8464 5.93053 82.7765 5.89335 82.2559L3.89844 82.3984L1.90352 82.5409C1.98092 83.6246 2.31214 84.7578 3.17172 85.6173L4.58594 84.2031ZM3.89844 82.3984L5.89401 82.2654C5.85183 81.6327 5.91153 80.8472 6.11335 79.8886L4.15625 79.4766L2.19915 79.0645C1.94263 80.283 1.83046 81.4454 1.90287 82.5315L3.89844 82.3984ZM4.15625 79.4766L6.0904 79.9855C6.36631 78.9371 6.66923 77.9184 6.99893 76.9293L5.10156 76.2969L3.2042 75.6644C2.84639 76.7378 2.51911 77.839 2.2221 78.9676L4.15625 79.4766ZM5.10156 76.2969L6.99893 76.9293C7.33236 75.929 7.66281 75.0211 7.98977 74.2037L6.13281 73.4609L4.27586 72.7182C3.91532 73.6195 3.55827 74.6022 3.2042 75.6644L5.10156 76.2969ZM6.13281 73.4609L7.98977 74.2037C8.33255 73.3468 8.58224 72.695 8.71768 72.2887L6.82031 71.6562L4.92295 71.0238C4.82922 71.305 4.62058 71.8564 4.27586 72.7182L6.13281 73.4609ZM6.82031 71.6562L8.70931 72.3133C9.13442 71.0911 9.8172 69.473 10.7772 67.4399L8.96875 66.5859L7.16025 65.7319C6.17238 67.8239 5.42287 69.586 4.93132 70.9992L6.82031 71.6562ZM8.96875 66.5859L10.7861 67.4209C11.7562 65.3095 12.7838 63.1115 13.8691 60.8269L12.0625 59.9688L10.2559 59.1106C9.16407 61.4093 8.1292 63.6228 7.1514 65.7509L8.96875 66.5859ZM12.0625 59.9688L13.8691 60.8269C14.9609 58.5282 15.9958 56.3147 16.9736 54.1866L15.1562 53.3516L13.3389 52.5166C12.3688 54.628 11.3412 56.826 10.2559 59.1106L12.0625 59.9688ZM15.1562 53.3516L16.9736 54.1866C17.9548 52.051 18.7174 50.2931 19.2531 48.9241L17.3906 48.1953L15.5281 47.4665C15.0326 48.733 14.3056 50.4125 13.3389 52.5166L15.1562 53.3516ZM17.3906 48.1953L19.3008 47.6025C18.8546 46.1649 18.811 45.0747 18.9971 44.2557L17.0469 43.8125L15.0966 43.3693C14.7098 45.0712 14.8954 46.9028 15.4805 48.7881L17.3906 48.1953ZM17.0469 43.8125L18.9821 44.3173C19.2603 43.251 19.716 42.3248 20.3443 41.5169L18.7656 40.2891L17.1869 39.0612C16.2111 40.3158 15.521 41.7386 15.1116 43.3077L17.0469 43.8125ZM18.7656 40.2891L20.3757 41.4755C21.0554 40.5531 21.8886 39.7164 22.8875 38.9672L21.6875 37.3672L20.4875 35.7672C19.1948 36.7367 18.0801 37.8479 17.1555 39.1027L18.7656 40.2891ZM21.6875 37.3672L22.9369 38.9289C24.0669 38.025 25.1962 37.1497 26.325 36.3031L25.125 34.7031L23.925 33.1031C22.7621 33.9753 21.5998 34.8761 20.4381 35.8055L21.6875 37.3672ZM25.125 34.7031L26.3114 36.3132C29.418 34.0242 32.7637 32.2568 36.3535 31.0058L35.6953 29.1172L35.0372 27.2286C31.0644 28.613 27.3633 30.5696 23.9386 33.093L25.125 34.7031ZM35.6953 29.1172L36.3535 31.0058C39.9471 29.7535 43.5837 29.0763 47.2697 28.9679L47.2109 26.9688L47.1521 24.9696C43.0465 25.0904 39.006 25.8455 35.0372 27.2286L35.6953 29.1172ZM47.2109 26.9688L47.2978 28.9669C51.0252 28.8048 54.7298 29.2631 58.42 30.3484L58.9844 28.4297L59.5487 26.511C55.4473 25.3047 51.3029 24.7889 47.1241 24.9706L47.2109 26.9688ZM58.9844 28.4297L58.42 30.3484C62.0736 31.423 65.5268 33.1725 68.7844 35.6156L69.9844 34.0156L71.1844 32.4156C67.5669 29.7026 63.6868 27.7281 59.5487 26.511L58.9844 28.4297ZM69.9844 34.0156L68.704 35.5521C71.2034 37.6349 72.4689 39.7345 72.8252 41.8278L74.7969 41.4922L76.7685 41.1566C76.2082 37.8644 74.2654 34.9797 71.2647 32.4792L69.9844 34.0156ZM74.7969 41.4922L72.8326 41.8683C73.2615 44.1082 72.97 46.4749 71.8491 49.0226L73.6797 49.8281L75.5103 50.6336C76.9102 47.4521 77.3635 44.2616 76.7612 41.116L74.7969 41.4922ZM73.6797 49.8281L71.8551 49.0089C70.7044 51.5719 68.8662 54.2594 66.2793 57.0665L67.75 58.4219L69.2207 59.7772C72.0192 56.7406 74.1341 53.6989 75.5042 50.6473L73.6797 49.8281ZM67.75 58.4219L66.2649 57.0823C63.7147 59.9096 60.7056 62.6986 57.2286 65.4465L58.4688 67.0156L59.7089 68.5847C63.3361 65.7181 66.5144 62.7779 69.2351 59.7614L67.75 58.4219ZM58.4688 67.0156L57.2286 65.4465C53.7371 68.206 49.9285 70.8867 45.8009 73.4876L46.8672 75.1797L47.9334 76.8718C52.1704 74.2019 56.0962 71.4399 59.7089 68.5847L58.4688 67.0156ZM46.8672 75.1797L45.8072 73.4837C41.7196 76.0384 37.6051 78.4219 33.4638 80.6344L34.4062 82.3984L35.3487 84.1625C39.5719 81.9062 43.7648 79.4772 47.9272 76.8757L46.8672 75.1797ZM34.4062 82.3984L33.4727 80.6297C29.3887 82.7851 25.395 84.7109 21.4916 86.4081L22.2891 88.2422L23.0865 90.0763C27.0894 88.336 31.1738 86.3659 35.3398 84.1672L34.4062 82.3984ZM22.2891 88.2422L21.5045 86.4025C17.6518 88.0456 14.22 89.3382 11.2041 90.2876L11.8047 92.1953L12.4053 94.103C15.5769 93.1045 19.1347 91.7617 23.0736 90.0819L22.2891 88.2422ZM11.8047 92.1953L11.1938 90.2909C8.21422 91.2466 5.86015 91.806 4.09444 92.0137L4.32812 94L4.56181 95.9863C6.69193 95.7357 9.32224 95.0919 12.4155 94.0997L11.8047 92.1953ZM4.32812 94L4.15234 92.0077C3.27774 92.0849 2.79089 92.0294 2.57222 91.9677C2.47683 91.9408 2.50878 91.9333 2.59266 92.0001C2.69263 92.0797 2.79949 92.2125 2.86005 92.382L0.976562 93.0547L-0.906921 93.7274C-0.47227 94.9444 0.550255 95.5534 1.48638 95.8175C2.38489 96.0709 3.4306 96.087 4.50391 95.9923L4.32812 94ZM77.5469 93.0547L78.3347 91.2164L78.3123 91.2068L78.2897 91.1977L77.5469 93.0547ZM75.4844 92.1094L74.59 93.8982L74.609 93.9077L74.6282 93.9168L75.4844 92.1094ZM70.5859 88.1562L68.77 88.9944L68.7958 89.0503L68.825 89.1044L70.5859 88.1562ZM71.7031 86.2656L73.0485 84.7857L72.0574 83.8848L70.847 84.4581L71.7031 86.2656ZM74.2812 88.3281L73.0948 89.9382L73.1144 89.9527L73.1343 89.9666L74.2812 88.3281ZM77.5469 90.1328L76.822 91.9968L77.1194 92.1125L77.4379 92.1298L77.5469 90.1328ZM86.7422 90.2188L86.8191 92.2173L86.8382 92.2165L86.8574 92.2154L86.7422 90.2188ZM95.4219 89.1016L95.8218 91.0612L95.8367 91.0581L95.8516 91.0549L95.4219 89.1016ZM103.672 86.3516L104.502 88.1709L104.511 88.167L104.52 88.1629L103.672 86.3516ZM111.492 81.4531L112.737 83.0183L112.757 83.0029L112.776 82.987L111.492 81.4531ZM116.992 75.0078L115.173 74.1763L115.168 74.1884L115.162 74.2005L116.992 75.0078ZM117.508 69.5078L115.592 70.0825L115.604 70.1214L115.617 70.1598L117.508 69.5078ZM114.156 64.7812L112.821 66.2704L112.848 66.2945L112.876 66.3177L114.156 64.7812ZM108.141 60.6562L107.144 62.3901L107.169 62.4047L107.195 62.4186L108.141 60.6562ZM100.75 57.0469L99.9525 58.881L99.9695 58.8884L99.9865 58.8954L100.75 57.0469ZM93.1875 53.7812L92.3632 55.6035L92.3813 55.6117L92.3997 55.6195L93.1875 53.7812ZM82.3594 47.4219L80.4125 47.88L80.5219 48.3448L80.8296 48.7101L82.3594 47.4219ZM88.8047 39.9453L89.8931 41.6232L89.9088 41.613L89.9244 41.6025L88.8047 39.9453ZM96.1094 35.7344L97.0038 37.5232L97.0186 37.5158L97.0332 37.5082L96.1094 35.7344ZM104.531 31.8672L103.801 30.0052L103.788 30.0102L104.531 31.8672ZM112.953 28.9453L112.393 27.0253L112.382 27.0285L112.953 28.9453ZM120.172 27.4844L120.338 29.4775L120.365 29.4752L120.393 29.4721L120.172 27.4844ZM126.016 30.8359L126.298 32.8158L127.643 32.6237L127.96 31.3027L126.016 30.8359ZM116.82 33.3281L116.271 31.405L116.259 31.4086L116.82 33.3281ZM109.086 35.7344L108.465 33.8331L108.453 33.837L109.086 35.7344ZM100.922 38.6562L101.602 40.537L101.62 40.5306L101.637 40.524L100.922 38.6562ZM93.4453 41.6641L92.6246 39.8402L93.4453 41.6641ZM85.7969 47.3359L83.8413 46.9169L83.8268 46.9846L83.817 47.0531L85.7969 47.3359ZM88.1172 49.3984L87.4652 51.2892L87.5024 51.302L87.5401 51.3134L88.1172 49.3984ZM107.797 57.4766L106.765 59.1897L106.777 59.197L106.789 59.2041L107.797 57.4766ZM117.938 66.0703L116.273 67.1797L116.278 67.1873L116.284 67.1949L117.938 66.0703ZM116.391 82.3984L114.872 81.0969L114.863 81.1074L114.854 81.1181L116.391 82.3984ZM108.484 88.8438L109.463 90.5877L109.475 90.5812L109.486 90.5746L108.484 88.8438ZM98.0859 93.1406L97.5444 91.2153L97.5365 91.2176L98.0859 93.1406ZM87.1719 94.7734L87.1406 92.7737L87.1401 92.7737L87.1719 94.7734ZM77.5469 93.0547L78.2897 91.1977C78.0734 91.1113 77.4491 90.827 76.3405 90.3019L75.4844 92.1094L74.6282 93.9168C75.6968 94.423 76.4474 94.769 76.8041 94.9116L77.5469 93.0547ZM75.4844 92.1094L76.3788 90.3205C75.4542 89.8582 74.5826 89.3197 73.7625 88.7047L72.5625 90.3047L71.3625 91.9047C72.3758 92.6646 73.4521 93.3293 74.59 93.8982L75.4844 92.1094ZM72.5625 90.3047L73.7625 88.7047C73 88.1328 72.5708 87.6238 72.3469 87.2081L70.5859 88.1562L68.825 89.1044C69.4032 90.1783 70.2916 91.1015 71.3625 91.9047L72.5625 90.3047ZM70.5859 88.1562L72.4019 87.3181C72.4188 87.3549 72.4658 87.4762 72.462 87.6608C72.4579 87.8549 72.3994 88.0238 72.3293 88.1425C72.267 88.2479 72.2181 88.2767 72.2553 88.2475C72.2924 88.2185 72.3841 88.1561 72.5593 88.0731L71.7031 86.2656L70.847 84.4581C70.1525 84.7871 69.3679 85.2913 68.8856 86.1075C68.3208 87.0633 68.3616 88.1094 68.77 88.9944L70.5859 88.1562ZM71.7031 86.2656L70.3578 87.7455C71.0592 88.3831 71.9791 89.1161 73.0948 89.9382L74.2812 88.3281L75.4677 86.718C74.4063 85.936 73.6075 85.294 73.0485 84.7857L71.7031 86.2656ZM74.2812 88.3281L73.1343 89.9666C74.3786 90.8376 75.6084 91.5249 76.822 91.9968L77.5469 90.1328L78.2718 88.2688C77.4228 87.9387 76.4756 87.4229 75.4282 86.6897L74.2812 88.3281ZM77.5469 90.1328L77.4379 92.1298C80.6473 92.3049 83.7745 92.3344 86.8191 92.2173L86.7422 90.2188L86.6653 88.2202C83.7515 88.3323 80.7485 88.3045 77.6558 88.1358L77.5469 90.1328ZM86.7422 90.2188L86.8574 92.2154C89.9283 92.0383 92.9168 91.654 95.8218 91.0612L95.4219 89.1016L95.022 87.142C92.3124 87.6949 89.5144 88.0555 86.627 88.2221L86.7422 90.2188ZM95.4219 89.1016L95.8516 91.0549C98.8524 90.3947 101.737 89.4335 104.502 88.1709L103.672 86.3516L102.841 84.5322C100.336 85.6759 97.7205 86.548 94.9921 87.1483L95.4219 89.1016ZM103.672 86.3516L104.52 88.1629C107.365 86.831 110.104 85.1128 112.737 83.0183L111.492 81.4531L110.247 79.8879C107.839 81.8039 105.364 83.3513 102.824 84.5402L103.672 86.3516ZM111.492 81.4531L112.776 82.987C115.672 80.5636 117.78 78.1779 118.822 75.8151L116.992 75.0078L115.162 74.2005C114.486 75.7336 112.927 77.6448 110.209 79.9193L111.492 81.4531ZM116.992 75.0078L118.811 75.8393C119.884 73.4916 120.179 71.1182 119.399 68.8558L117.508 69.5078L115.617 70.1598C115.983 71.2203 115.933 72.5136 115.173 74.1763L116.992 75.0078ZM117.508 69.5078L119.423 68.9331C118.77 66.7551 117.382 64.8663 115.437 63.2448L114.156 64.7812L112.876 66.3177C114.368 67.5608 115.214 68.823 115.592 70.0825L117.508 69.5078ZM114.156 64.7812L115.491 63.2921C113.691 61.6781 111.549 60.2155 109.086 58.8939L108.141 60.6562L107.195 62.4186C109.43 63.6178 111.298 64.9052 112.821 66.2704L114.156 64.7812ZM108.141 60.6562L109.138 58.9224C106.765 57.5582 104.223 56.3175 101.514 55.1984L100.75 57.0469L99.9865 58.8954C102.548 59.9534 104.933 61.1188 107.144 62.3901L108.141 60.6562ZM100.75 57.0469L101.547 55.2127C98.9091 54.0656 96.3851 52.9757 93.9753 51.943L93.1875 53.7812L92.3997 55.6195C94.8024 56.6493 97.32 57.7364 99.9525 58.881L100.75 57.0469ZM93.1875 53.7812L94.0118 51.959C91.6362 50.8843 89.4971 49.8425 87.592 48.834L86.6562 50.6016L85.7205 52.3691C87.7113 53.4231 89.9263 54.5011 92.3632 55.6035L93.1875 53.7812ZM86.6562 50.6016L87.592 48.834C85.7598 47.864 84.5751 46.9482 83.8892 46.1336L82.3594 47.4219L80.8296 48.7101C81.9769 50.0727 83.6568 51.2766 85.7205 52.3691L86.6562 50.6016ZM82.3594 47.4219L84.3062 46.9638C84.3058 46.9622 84.305 46.9582 84.3046 46.9501C84.3042 46.9418 84.3041 46.9258 84.3071 46.9006C84.3133 46.8497 84.3332 46.7561 84.3934 46.6143C84.5192 46.3182 84.7877 45.891 85.2973 45.3329L83.8203 43.9844L82.3433 42.6358C81.0354 44.0684 79.9449 45.8924 80.4125 47.88L82.3594 47.4219ZM83.8203 43.9844L85.2973 45.3329C86.3488 44.1812 87.8622 42.9406 89.8931 41.6232L88.8047 39.9453L87.7163 38.2674C85.5076 39.7 83.6981 41.1521 82.3433 42.6358L83.8203 43.9844ZM88.8047 39.9453L89.9244 41.6025C91.9594 40.2275 94.3167 38.8668 97.0038 37.5232L96.1094 35.7344L95.215 33.9455C92.402 35.352 89.8896 36.7985 87.685 38.2881L88.8047 39.9453ZM96.1094 35.7344L97.0332 37.5082C99.7246 36.1065 102.471 34.8452 105.274 33.7241L104.531 31.8672L103.788 30.0102C100.862 31.1809 97.9942 32.4977 95.1855 33.9605L96.1094 35.7344ZM104.531 31.8672L105.261 33.7291C108.137 32.6015 110.891 31.6464 113.524 30.8621L112.953 28.9453L112.382 27.0285C109.63 27.8484 106.769 28.8412 103.801 30.0052L104.531 31.8672ZM112.953 28.9453L113.513 30.8653C116.18 30.0876 118.449 29.6349 120.338 29.4775L120.172 27.4844L120.006 25.4913C117.77 25.6776 115.227 26.1989 112.393 27.0253L112.953 28.9453ZM120.172 27.4844L120.393 29.4721C122.321 29.2579 123.452 29.4421 124.042 29.7215L124.898 27.9141L125.755 26.1066C124.167 25.3548 122.148 25.2525 119.951 25.4966L120.172 27.4844ZM124.898 27.9141L124.042 29.7215C124.134 29.7649 124.159 29.7931 124.153 29.7871C124.143 29.7774 124.131 29.7587 124.126 29.7455C124.12 29.7294 124.186 29.8896 124.071 30.3692L126.016 30.8359L127.96 31.3027C128.189 30.35 128.241 29.307 127.862 28.317C127.464 27.2742 126.687 26.5481 125.755 26.1066L124.898 27.9141ZM126.016 30.8359L125.733 28.856C125.176 28.9356 124 29.2372 122.39 29.6814L122.922 31.6094L123.454 33.5374C125.166 33.0649 126.053 32.8508 126.298 32.8158L126.016 30.8359ZM122.922 31.6094L122.39 29.6814C120.721 30.1419 118.681 30.7166 116.271 31.4051L116.82 33.3281L117.37 35.2512C119.773 34.5647 121.8 33.9935 123.454 33.5374L122.922 31.6094ZM116.82 33.3281L116.259 31.4086C113.886 32.103 111.288 32.9114 108.465 33.8332L109.086 35.7344L109.707 37.6356C112.498 36.7241 115.056 35.9283 117.382 35.2476L116.82 33.3281ZM109.086 35.7344L108.453 33.837C105.676 34.7629 102.927 35.7467 100.207 36.7885L100.922 38.6562L101.637 40.524C104.302 39.5033 106.996 38.5392 109.718 37.6317L109.086 35.7344ZM100.922 38.6562L100.242 36.7755C97.5078 37.7643 94.9682 38.7856 92.6246 39.8402L93.4453 41.6641L94.266 43.4879C96.5058 42.48 98.9506 41.4961 101.602 40.537L100.922 38.6562ZM93.4453 41.6641L92.6246 39.8402C90.2639 40.9025 88.3184 41.9726 86.8425 43.0635L88.0312 44.6719L89.22 46.2802C90.3795 45.4232 92.0434 44.4881 94.266 43.4879L93.4453 41.6641ZM88.0312 44.6719L86.8425 43.0635C85.4665 44.0805 84.1775 45.3477 83.8413 46.9169L85.7969 47.3359L87.7525 47.755C87.7477 47.7772 87.7726 47.6447 88.0168 47.3536C88.2557 47.0687 88.6403 46.7087 89.22 46.2802L88.0312 44.6719ZM85.7969 47.3359L83.817 47.0531C83.6385 48.3021 84.2307 49.2976 84.9623 49.9479C85.6377 50.5483 86.535 50.9684 87.4652 51.2892L88.1172 49.3984L88.7692 47.5077C88.4214 47.3878 88.1551 47.2736 87.957 47.1711C87.7556 47.0669 87.6562 46.9907 87.6197 46.9583C87.5844 46.9269 87.6462 46.9707 87.7065 47.107C87.7749 47.2616 87.8014 47.4464 87.7768 47.6188L85.7969 47.3359ZM88.1172 49.3984L87.5401 51.3134C95.8251 53.8102 102.209 56.4455 106.765 59.1897L107.797 57.4766L108.829 55.7634C103.874 52.7785 97.1384 50.0283 88.6943 47.4835L88.1172 49.3984ZM107.797 57.4766L106.789 59.2041C111.477 61.9384 114.565 64.617 116.273 67.1797L117.938 66.0703L119.602 64.9609C117.414 61.6799 113.742 58.6293 108.805 55.749L107.797 57.4766ZM117.938 66.0703L116.284 67.1949C118.01 69.7335 118.557 72.0595 118.198 74.2559L120.172 74.5781L122.146 74.9004C122.704 71.4821 121.761 68.1363 119.591 64.9457L117.938 66.0703ZM120.172 74.5781L118.198 74.2559C117.805 76.6609 116.724 78.9364 114.872 81.0969L116.391 82.3984L117.909 83.7C120.182 81.048 121.622 78.11 122.146 74.9004L120.172 74.5781ZM116.391 82.3984L114.854 81.1181C113.027 83.3113 110.585 85.3165 107.482 87.1129L108.484 88.8438L109.486 90.5746C112.915 88.5897 115.744 86.2981 117.927 83.6788L116.391 82.3984ZM108.484 88.8438L107.505 87.0998C104.38 88.8542 101.061 90.2262 97.5444 91.2153L98.0859 93.1406L98.6274 95.0659C102.444 93.9925 106.057 92.4999 109.463 90.5877L108.484 88.8438ZM98.0859 93.1406L97.5365 91.2176C94.0917 92.2018 90.6278 92.7192 87.1406 92.7737L87.1719 94.7734L87.2031 96.7732C91.0493 96.7131 94.8614 96.142 98.6354 95.0637L98.0859 93.1406ZM87.1719 94.7734L87.1401 92.7737C83.7617 92.8273 80.8405 92.2903 78.3347 91.2164L77.5469 93.0547L76.759 94.893C79.8679 96.2253 83.3633 96.8341 87.2036 96.7732L87.1719 94.7734Z" fill="#1525B3" mask="url(#path-2-outside-1_1_26)"/>
</g>
<defs>
<clipPath id="clip0_1_26">
<rect width="128" height="128" rx="8" fill="white"/>
</clipPath>
</defs>
</svg>
